# xmcd
# 
# Track frame offsets:
#     150
#     32929
#     68627
#     81282
# 
# Disc length: 1829
# 
# Revision: 0
# Processed by: cddbd v1.5.2PL0 Copyright (c) Steve Scherf et al.
# Submitted via: BonkEnc v1.0.8
# 
DISCID=2d072304
DTITLE=Andreas Vollenweider - Behind The Gardens
DYEAR=0
DGENRE=Instrumental
TTITLE0=Behind The Gardens - Behind The Wall - Under The Tree
TTITLE1=Pyramid - In The Wood - In The Bright Light
TTITLE2=Micro - Macro
TTITLE3=Skin and Skin (...)
EXTD=
EXTT0=
EXTT1=
EXTT2=
EXTT3=
PLAYORDER=
